<?xml version="1.0" standalone="yes"?>
<svg xmlns="http://www.w3.org/2000/svg" width="512" height="512">
<path style="fill:#010101; stroke:none;" d="M0 0L0 512L512 512L512 0L0 0z"/>
<path style="fill:#1ba1ff; stroke:none;" d="M149 128L87 128L71 132C57.6679 151.599 64 184.821 64 208L64 389C64 408.315 63.611 427.675 64.0247 446.985C64.17 453.767 64.9746 463.597 73 465C77.0382 470.885 84.8901 469.164 91 469.015C105.981 468.649 121.014 469 136 469L296 469C308.664 469 321.337 468.854 334 469.004C341.587 469.094 348.419 470.174 354.791 464.882C363.228 457.875 363 448.016 363 438L363 384L415 384C420.06 384 430.492 386.014 434 382C451.081 381.306 448 358.575 448 347L448 233L448 97C448 84.4262 452.979 58.2769 443.072 48.8387C430.363 36.7318 399.423 43 383 43L221 43C206.667 43 192.333 43.0684 178 42.9992C170.529 42.9632 163.394 41.1912 157.039 46.3974C148.539 53.3616 149 63.0721 149 73L149 128z"/>
<path style="fill:#1b9fff; stroke:none;" d="M170 42L170 43L427 43L403 42L351 42L170 42M430 42L431 43L430 42M163 43L164 44L163 43M434 43L435 44L434 43M436 44L437 45L436 44z"/>
<path style="fill:#0c90ff; stroke:none;" d="M437 44L438 45L437 44z"/>
<path style="fill:#1b9fff; stroke:none;" d="M438 45L439 46L438 45M439.667 46.3333L440.333 46.6667L439.667 46.3333M155 47L156 48L155 47M154 48L155 49L154 48M442 48L443 49L442 48z"/>
<path style="fill:#0c90ff; stroke:none;" d="M153 49L154 50L153 49z"/>
<path style="fill:#1b9fff; stroke:none;" d="M152 51L153 52L152 51z"/>
<path style="fill:#0c90ff; stroke:none;" d="M151 52L152 53L151 52z"/>
<path style="fill:#1b9fff; stroke:none;" d="M151 53L152 54L151 53z"/>
<path style="fill:#01ffff; stroke:none;" d="M447 56L448 57L447 56z"/>
<path style="fill:#1b9fff; stroke:none;" d="M149 59L150 60L149 59M192 85L192 86L405 86L385 85L342 85L192 85z"/>
<path style="fill:#010101; stroke:none;" d="M192 86L192 128L363 128L363 341L405 341L405 86L192 86z"/>
<path style="fill:#1b9fff; stroke:none;" d="M77 129L78 130L77 129M74 130L75 131L74 130M72 132L73 133L72 132M70 133L71 134L70 133M69 134L70 135L69 134M68 135L69 136L68 135z"/>
<path style="fill:#0c90ff; stroke:none;" d="M67 136L68 137L67 136M64 142L65 143L64 142z"/>
<path style="fill:#1b9fff; stroke:none;" d="M64 143L65 144L64 143M445.333 373.667L445.667 374.333L445.333 373.667M442 378L443 379L442 378M437.667 381.333L438.333 381.667L437.667 381.333M434 382L435 383L434 382M436 382L437 383L436 382M362 449L363 450L362 449M64 451L65 452L64 451M362 452L363 453L362 452z"/>
<path style="fill:#0c90ff; stroke:none;" d="M362 453L363 454L362 453z"/>
<path style="fill:#1b9fff; stroke:none;" d="M64 454L65 455L64 454M361.333 454.667L361.667 455.333L361.333 454.667M360 458L361 459L360 458M359 459L360 460L359 459M68 461L69 462L68 461M357 461L357 463L359 461L357 461M356 463L357 464L356 463M72 465L73 466L72 465M353 465L354 466L353 465z"/>
<path style="fill:#01ffff; stroke:none;" d="M354 465L355 466L354 465z"/>
<path style="fill:#0c90ff; stroke:none;" d="M74 467L75 468L74 467z"/>
<path style="fill:#1b9fff; stroke:none;" d="M350 467L351 468L350 467M77 468L78 469L77 468M79 468L80 469L79 468M348 468L349 469L348 468M85 469L85 470L341 470L317 469L265 469L85 469M344 469L345 470L344 469z"/>
</svg>
